<svg xmlns="http://www.w3.org/2000/svg" viewBox="0 0 800 1000">
  <rect width="800" height="1000" fill="#f6eee2"/>
  <ellipse cx="400" cy="500" rx="260" ry="330" fill="#d99ab3"/>
  <g fill="#fff3cb">
    <path d="M400 260c22 38 61 58 104 56-33 19-49 56-43 95-23-28-62-42-100-33 22-27 28-76 4-118 13 4 26 4 35 0z"/>
    <path d="M295 405c20 34 57 52 99 49-31 18-47 48-41 84-22-25-57-38-92-28 20-26 25-67 3-105 11 3 22 3 31 0z"/>
    <path d="M470 565c20 34 57 52 99 49-31 18-47 48-41 84-22-25-57-38-92-28 20-26 25-67 3-105 11 3 22 3 31 0z"/>
  </g>
</svg>
